<?xml version="1.0" encoding="UTF-8" standalone="no"?>
<!DOCTYPE svg PUBLIC "-//W3C//DTD SVG 1.1//EN"
 "http://www.w3.org/Graphics/SVG/1.1/DTD/svg11.dtd">
<!-- Generated by graphviz version 2.40.1 (20161225.0304)
 -->
<!-- Title: dependencies Pages: 1 -->
<svg width="1022pt" height="284pt"
 viewBox="0.00 0.00 1022.00 284.00" xmlns="http://www.w3.org/2000/svg" xmlns:xlink="http://www.w3.org/1999/xlink">
<g id="graph0" class="graph" transform="scale(1 1) rotate(0) translate(4 280)">
<title>dependencies</title>
<polygon fill="#ffffff" stroke="transparent" points="-4,4 -4,-280 1018,-280 1018,4 -4,4"/>
<text text-anchor="start" x="486.0091" y="-42.4" font-family="sans-serif" font-weight="bold" font-size="14.00" fill="#000000">Legend</text>
<polygon fill="#ffffb3" stroke="transparent" points="273,-10 273,-30 293,-30 293,-10 273,-10"/>
<text text-anchor="start" x="296.629" y="-15.4" font-family="sans-serif" font-size="14.00" fill="#000000"> &#160;Declarations</text>
<polygon fill="#8dd3c7" stroke="transparent" points="386,-10 386,-30 406,-30 406,-10 386,-10"/>
<text text-anchor="start" x="409.7251" y="-15.4" font-family="sans-serif" font-size="14.00" fill="#000000"> &#160;Module</text>
<polygon fill="#80b1d3" stroke="transparent" points="472,-10 472,-30 492,-30 492,-10 472,-10"/>
<text text-anchor="start" x="495.7812" y="-15.4" font-family="sans-serif" font-size="14.00" fill="#000000"> &#160;Bootstrap</text>
<polygon fill="#fdb462" stroke="transparent" points="569,-10 569,-30 589,-30 589,-10 569,-10"/>
<text text-anchor="start" x="592.6732" y="-15.4" font-family="sans-serif" font-size="14.00" fill="#000000"> &#160;Providers</text>
<polygon fill="#fb8072" stroke="transparent" points="665,-10 665,-30 685,-30 685,-10 665,-10"/>
<text text-anchor="start" x="688.7258" y="-15.4" font-family="sans-serif" font-size="14.00" fill="#000000"> &#160;Exports</text>
<g id="clust1" class="cluster">
<title>cluster_AppModule</title>
<polygon fill="none" stroke="#000000" stroke-dasharray="1,5" points="8,-70 8,-268 1006,-268 1006,-70 8,-70"/>
</g>
<g id="clust2" class="cluster">
<title>cluster_AppModule_declarations</title>
<polygon fill="none" stroke="#000000" points="168,-78 168,-130 998,-130 998,-78 168,-78"/>
</g>
<g id="clust8" class="cluster">
<title>cluster_AppModule_imports</title>
<polygon fill="none" stroke="#000000" points="16,-78 16,-130 160,-130 160,-78 16,-78"/>
</g>
<g id="clust10" class="cluster">
<title>cluster_AppModule_bootstrap</title>
<polygon fill="none" stroke="#000000" points="482,-208 482,-260 606,-260 606,-208 482,-208"/>
</g>
<!-- AppComponent -->
<g id="node1" class="node">
<title>AppComponent</title>
<polygon fill="#ffffb3" stroke="#000000" points="989.9399,-122 884.0601,-122 884.0601,-86 989.9399,-86 989.9399,-122"/>
<text text-anchor="middle" x="937" y="-99.8" font-family="Times,serif" font-size="14.00" fill="#000000">AppComponent</text>
</g>
<!-- AppModule -->
<g id="node6" class="node">
<title>AppModule</title>
<polygon fill="#8dd3c7" stroke="#000000" points="585.6571,-187 582.6571,-191 561.6571,-191 558.6571,-187 502.3429,-187 502.3429,-151 585.6571,-151 585.6571,-187"/>
<text text-anchor="middle" x="544" y="-164.8" font-family="Times,serif" font-size="14.00" fill="#000000">AppModule</text>
</g>
<!-- AppComponent&#45;&gt;AppModule -->
<g id="edge1" class="edge">
<title>AppComponent&#45;&gt;AppModule</title>
<path fill="none" stroke="#000000" d="M937,-122.2843C937,-143.3211 937,-175 937,-175 937,-175 595.6858,-175 595.6858,-175"/>
<polygon fill="#000000" stroke="#000000" points="595.6859,-171.5001 585.6858,-175 595.6858,-178.5001 595.6859,-171.5001"/>
</g>
<!-- HeaderComponent -->
<g id="node2" class="node">
<title>HeaderComponent</title>
<polygon fill="#ffffb3" stroke="#000000" points="865.7437,-122 744.2563,-122 744.2563,-86 865.7437,-86 865.7437,-122"/>
<text text-anchor="middle" x="805" y="-99.8" font-family="Times,serif" font-size="14.00" fill="#000000">HeaderComponent</text>
</g>
<!-- HeaderComponent&#45;&gt;AppModule -->
<g id="edge2" class="edge">
<title>HeaderComponent&#45;&gt;AppModule</title>
<path fill="none" stroke="#000000" d="M805,-122.0225C805,-139.3734 805,-163 805,-163 805,-163 595.9342,-163 595.9342,-163"/>
<polygon fill="#000000" stroke="#000000" points="595.9342,-159.5001 585.9342,-163 595.9341,-166.5001 595.9342,-159.5001"/>
</g>
<!-- InventoryCreateComponent -->
<g id="node3" class="node">
<title>InventoryCreateComponent</title>
<polygon fill="#ffffb3" stroke="#000000" points="726.2906,-122 553.7094,-122 553.7094,-86 726.2906,-86 726.2906,-122"/>
<text text-anchor="middle" x="640" y="-99.8" font-family="Times,serif" font-size="14.00" fill="#000000">InventoryCreateComponent</text>
</g>
<!-- InventoryCreateComponent&#45;&gt;AppModule -->
<g id="edge3" class="edge">
<title>InventoryCreateComponent&#45;&gt;AppModule</title>
<path fill="none" stroke="#000000" d="M569.8415,-122.1061C569.8415,-122.1061 569.8415,-140.991 569.8415,-140.991"/>
<polygon fill="#000000" stroke="#000000" points="566.3416,-140.9909 569.8415,-150.991 573.3416,-140.991 566.3416,-140.9909"/>
</g>
<!-- InventoryDetailsComponent -->
<g id="node4" class="node">
<title>InventoryDetailsComponent</title>
<polygon fill="#ffffb3" stroke="#000000" points="535.9115,-122 360.0885,-122 360.0885,-86 535.9115,-86 535.9115,-122"/>
<text text-anchor="middle" x="448" y="-99.8" font-family="Times,serif" font-size="14.00" fill="#000000">InventoryDetailsComponent</text>
</g>
<!-- InventoryDetailsComponent&#45;&gt;AppModule -->
<g id="edge4" class="edge">
<title>InventoryDetailsComponent&#45;&gt;AppModule</title>
<path fill="none" stroke="#000000" d="M518.9387,-122.1061C518.9387,-122.1061 518.9387,-140.991 518.9387,-140.991"/>
<polygon fill="#000000" stroke="#000000" points="515.4387,-140.9909 518.9387,-150.991 522.4387,-140.991 515.4387,-140.9909"/>
</g>
<!-- InventoryViewComponent -->
<g id="node5" class="node">
<title>InventoryViewComponent</title>
<polygon fill="#ffffb3" stroke="#000000" points="342.0772,-122 175.9228,-122 175.9228,-86 342.0772,-86 342.0772,-122"/>
<text text-anchor="middle" x="259" y="-99.8" font-family="Times,serif" font-size="14.00" fill="#000000">InventoryViewComponent</text>
</g>
<!-- InventoryViewComponent&#45;&gt;AppModule -->
<g id="edge5" class="edge">
<title>InventoryViewComponent&#45;&gt;AppModule</title>
<path fill="none" stroke="#000000" d="M259,-122.0225C259,-139.3734 259,-163 259,-163 259,-163 492.2533,-163 492.2533,-163"/>
<polygon fill="#000000" stroke="#000000" points="492.2534,-166.5001 502.2533,-163 492.2533,-159.5001 492.2534,-166.5001"/>
</g>
<!-- AppComponent  -->
<g id="node8" class="node">
<title>AppComponent </title>
<polygon fill="#80b1d3" stroke="#000000" points="598.439,-252 489.561,-252 489.561,-216 598.439,-216 598.439,-252"/>
<text text-anchor="middle" x="544" y="-229.8" font-family="Times,serif" font-size="14.00" fill="#000000">AppComponent </text>
</g>
<!-- AppModule&#45;&gt;AppComponent  -->
<g id="edge7" class="edge">
<title>AppModule&#45;&gt;AppComponent </title>
<path fill="none" stroke="#000000" stroke-dasharray="1,5" d="M544,-187.1061C544,-187.1061 544,-205.991 544,-205.991"/>
<polygon fill="#000000" stroke="#000000" points="540.5001,-205.9909 544,-215.991 547.5001,-205.991 540.5001,-205.9909"/>
</g>
<!-- AppRoutingModule -->
<g id="node7" class="node">
<title>AppRoutingModule</title>
<polygon fill="#8dd3c7" stroke="#000000" points="152.2744,-122 149.2744,-126 128.2744,-126 125.2744,-122 23.7256,-122 23.7256,-86 152.2744,-86 152.2744,-122"/>
<text text-anchor="middle" x="88" y="-99.8" font-family="Times,serif" font-size="14.00" fill="#000000">AppRoutingModule</text>
</g>
<!-- AppRoutingModule&#45;&gt;AppModule -->
<g id="edge6" class="edge">
<title>AppRoutingModule&#45;&gt;AppModule</title>
<path fill="none" stroke="#000000" d="M88,-122.2843C88,-143.3211 88,-175 88,-175 88,-175 492.3242,-175 492.3242,-175"/>
<polygon fill="#000000" stroke="#000000" points="492.3242,-178.5001 502.3242,-175 492.3242,-171.5001 492.3242,-178.5001"/>
</g>
</g>
</svg>
